<svg 
 xmlns="http://www.w3.org/2000/svg"
 xmlns:xlink="http://www.w3.org/1999/xlink"
 width="64px" height="50px">
<path fill-rule="evenodd"  fill="rgb(44, 64, 88)"
 d="M56.789,47.902 L64.000,47.902 L64.000,49.987 L56.789,49.987 L9.915,49.987 L8.113,49.987 L0.000,49.987 L0.000,47.902 L8.113,47.902 L8.113,26.377 L2.129,29.063 L1.477,27.119 L18.028,19.689 L18.028,5.979 L13.382,5.139 L13.660,3.079 L42.505,8.292 L42.446,8.728 L61.871,0.009 L62.523,1.953 L55.398,5.151 L56.789,5.151 L56.789,47.902 ZM45.070,47.902 L45.070,34.347 L38.761,34.347 L38.761,47.902 L45.070,47.902 ZM19.831,6.304 L19.831,18.880 L39.804,9.914 L19.831,6.304 ZM54.986,5.336 L9.915,25.568 L9.915,47.902 L37.859,47.902 L37.859,34.347 L37.859,33.304 L45.972,33.304 L45.972,34.347 L45.972,47.902 L54.986,47.902 L54.986,5.336 Z"/>
</svg>