<svg 
 xmlns="http://www.w3.org/2000/svg"
 xmlns:xlink="http://www.w3.org/1999/xlink"
 width="59px" height="51px">
<path fill-rule="evenodd"  fill="rgb(44, 64, 88)"
 d="M11.000,50.048 L10.000,50.048 L-0.000,50.048 L-0.000,47.710 L3.000,47.710 L3.000,23.159 L2.836,22.005 L9.000,20.804 L9.000,11.467 L10.000,11.467 L9.783,10.326 L44.807,1.226 L45.625,0.032 L55.351,9.129 L56.000,9.129 L56.000,23.158 L56.000,31.342 L56.000,47.710 L59.000,47.710 L59.000,50.048 L11.000,50.048 ZM11.000,47.710 L47.000,47.710 L47.000,33.680 L11.000,33.680 L11.000,47.710 ZM54.000,10.860 L45.945,3.326 L11.000,12.405 L11.000,20.414 L43.855,14.012 L44.633,12.900 L54.000,21.860 L54.000,10.860 ZM54.000,31.342 L54.000,24.882 L44.902,16.179 L5.000,23.954 L5.000,47.710 L10.000,47.710 L10.000,33.680 L10.000,32.512 L47.000,32.512 L48.000,32.512 L48.000,33.680 L48.000,47.710 L54.000,47.710 L54.000,31.342 Z"/>
</svg>