<svg 
 xmlns="http://www.w3.org/2000/svg"
 xmlns:xlink="http://www.w3.org/1999/xlink"
 width="68px" height="50px">
<path fill-rule="evenodd"  fill="rgb(44, 64, 88)"
 d="M68.000,50.000 L0.000,50.000 L0.000,48.270 L4.359,48.270 L4.359,20.594 L5.231,20.594 L4.732,19.885 L33.502,-0.007 L33.564,0.082 L33.627,-0.007 L62.396,19.885 L61.897,20.594 L62.769,20.594 L62.769,48.270 L68.000,48.270 L68.000,50.000 ZM47.949,48.270 L47.949,29.174 L38.359,32.833 L38.359,48.270 L47.949,48.270 ZM38.359,31.907 L47.640,28.365 L38.359,21.459 L38.359,31.907 ZM20.051,29.174 L20.051,48.270 L29.641,48.270 L29.641,32.833 L20.051,29.174 ZM29.641,31.907 L29.641,21.459 L20.360,28.365 L29.641,31.907 ZM61.026,21.046 L33.564,2.058 L6.103,21.046 L6.103,48.270 L18.308,48.270 L18.308,27.513 L29.641,19.291 L29.641,18.865 L31.385,18.865 L31.385,48.270 L36.615,48.270 L36.615,18.865 L38.359,18.865 L38.359,19.291 L49.692,27.513 L49.692,48.270 L61.026,48.270 L61.026,21.046 Z"/>
</svg>