<svg 
 xmlns="http://www.w3.org/2000/svg"
 xmlns:xlink="http://www.w3.org/1999/xlink"
 width="61px" height="50px">
<path fill-rule="evenodd"  fill="rgb(44, 64, 88)"
 d="M61.000,49.933 L53.442,49.933 L53.375,50.000 L53.375,49.933 L-0.000,49.933 L-0.000,48.611 L6.778,48.611 L6.778,20.339 L6.778,19.491 L6.778,18.644 L12.789,18.644 L12.718,12.712 L11.014,12.712 L9.319,12.712 L9.319,11.017 L9.319,7.627 L11.014,7.627 L11.014,7.652 L12.792,7.639 L12.708,-0.000 L14.403,-0.000 L14.403,0.372 L40.667,0.022 L40.667,-0.000 L42.361,-0.000 L42.361,1.695 L42.361,20.681 L53.375,8.205 L53.375,6.780 L55.069,6.780 L55.069,48.305 L54.763,48.611 L61.000,48.611 L61.000,49.933 ZM8.345,20.339 L8.345,48.611 L35.675,48.611 L35.675,33.684 L24.943,20.339 L8.345,20.339 ZM40.668,1.696 L14.403,1.714 L14.403,7.627 L14.403,9.322 L11.014,9.322 L11.014,11.017 L14.403,11.017 L14.403,12.712 L14.403,18.644 L25.417,18.644 L25.417,19.166 L25.482,19.093 L36.637,32.964 L36.233,33.419 L36.791,33.419 L36.791,48.611 L40.695,48.611 L40.668,1.696 ZM53.375,10.034 L42.361,22.510 L42.361,48.611 L53.375,48.611 L53.375,10.034 ZM47.444,24.646 L49.139,24.646 L49.139,24.576 L49.986,24.576 L49.986,35.593 L49.986,36.440 L49.139,36.440 L47.444,36.440 L46.597,36.440 L46.597,35.593 L46.597,24.576 L47.444,24.576 L47.444,24.646 ZM47.444,35.593 L49.139,35.593 L49.139,25.306 L47.444,25.306 L47.444,35.593 ZM18.639,15.254 L17.792,15.254 L17.792,14.406 L17.795,14.406 L17.824,5.932 L17.792,5.932 L17.792,5.085 L17.827,5.085 L17.827,5.017 L18.639,5.085 L36.431,5.085 L37.348,5.017 L37.278,15.254 L36.431,15.254 L18.639,15.254 ZM36.431,5.932 L18.639,5.932 L18.639,14.406 L36.431,14.406 L36.431,5.932 Z"/>
</svg>
