<svg 
 xmlns="http://www.w3.org/2000/svg"
 xmlns:xlink="http://www.w3.org/1999/xlink"
 width="96px" height="50px">
<path fill-rule="evenodd"  fill="rgb(44, 64, 88)"
 d="M95.138,28.291 L79.872,20.789 L79.872,44.107 L84.778,44.107 L84.778,46.071 L53.381,46.071 L53.381,48.035 L53.381,49.018 L53.381,50.000 L6.286,50.000 L6.286,48.035 L11.191,48.035 L11.191,15.742 L0.803,20.447 L-0.006,18.657 L41.203,-0.005 L41.607,0.890 L42.040,0.008 L96.003,26.527 L95.138,28.291 ZM13.154,48.035 L52.400,48.035 L52.400,29.374 L13.154,29.374 L13.154,48.035 ZM41.590,1.976 L13.154,14.853 L13.154,27.409 L41.607,27.409 L41.607,2.854 L42.588,2.854 L42.588,27.409 L66.136,27.409 L66.136,29.374 L53.381,29.374 L53.381,44.107 L66.136,44.107 L66.136,14.038 L41.590,1.976 ZM68.098,15.003 L68.098,44.107 L78.891,44.107 L78.891,20.534 L79.354,20.534 L68.098,15.003 Z"/>
</svg>